<svg width="64" height="64" viewBox="0 0 64 64" fill="none" xmlns="http://www.w3.org/2000/svg">
<path fill-rule="evenodd" clip-rule="evenodd" d="M60 32C60 31.4696 59.7893 30.9609 59.4142 30.5858C59.0392 30.2107 58.5305 30 58 30H10.828L23.416 17.416C23.602 17.23 23.7495 17.0093 23.8501 16.7663C23.9508 16.5234 24.0026 16.263 24.0026 16C24.0026 15.737 23.9508 15.4766 23.8501 15.2337C23.7495 14.9907 23.602 14.7699 23.416 14.584C23.2301 14.398 23.0093 14.2505 22.7664 14.1499C22.5234 14.0493 22.263 13.9975 22 13.9975C21.7371 13.9975 21.4767 14.0493 21.2337 14.1499C20.9907 14.2505 20.77 14.398 20.584 14.584L4.58404 30.584C4.39778 30.7698 4.25001 30.9905 4.14918 31.2335C4.04836 31.4764 3.99646 31.7369 3.99646 32C3.99646 32.2631 4.04836 32.5235 4.14918 32.7665C4.25001 33.0095 4.39778 33.2302 4.58404 33.416L20.584 49.416C20.77 49.6019 20.9907 49.7494 21.2337 49.8501C21.4767 49.9507 21.7371 50.0025 22 50.0025C22.263 50.0025 22.5234 49.9507 22.7664 49.8501C23.0093 49.7494 23.2301 49.6019 23.416 49.416C23.602 49.23 23.7495 49.0093 23.8501 48.7663C23.9508 48.5234 24.0026 48.263 24.0026 48C24.0026 47.737 23.9508 47.4766 23.8501 47.2337C23.7495 46.9907 23.602 46.7699 23.416 46.584L10.828 34H58C58.5305 34 59.0392 33.7893 59.4142 33.4142C59.7893 33.0391 60 32.5304 60 32Z" fill="#FDB018"/>
</svg>
