<svg width="64" height="64" viewBox="0 0 64 64" fill="none" xmlns="http://www.w3.org/2000/svg">
<path d="M32 60C24.5739 60 17.452 57.05 12.201 51.799C6.94999 46.548 4 39.4261 4 32C4 24.5739 6.94999 17.452 12.201 12.201C17.452 6.94999 24.5739 4 32 4C39.4261 4 46.548 6.94999 51.799 12.201C57.05 17.452 60 24.5739 60 32C60 39.4261 57.05 46.548 51.799 51.799C46.548 57.05 39.4261 60 32 60ZM32 64C40.4869 64 48.6263 60.6286 54.6274 54.6274C60.6286 48.6263 64 40.4869 64 32C64 23.5131 60.6286 15.3737 54.6274 9.37258C48.6263 3.37142 40.4869 0 32 0C23.5131 0 15.3737 3.37142 9.37258 9.37258C3.37142 15.3737 0 23.5131 0 32C0 40.4869 3.37142 48.6263 9.37258 54.6274C15.3737 60.6286 23.5131 64 32 64V64Z" fill="#FDB018"/>
<path d="M18.584 18.584C18.7698 18.3978 18.9905 18.25 19.2335 18.1492C19.4764 18.0483 19.7369 17.9964 20 17.9964C20.2631 17.9964 20.5236 18.0483 20.7665 18.1492C21.0095 18.25 21.2302 18.3978 21.416 18.584L32 29.172L42.584 18.584C42.77 18.3981 42.9907 18.2505 43.2337 18.1499C43.4766 18.0493 43.737 17.9975 44 17.9975C44.263 17.9975 44.5234 18.0493 44.7663 18.1499C45.0093 18.2505 45.2301 18.3981 45.416 18.584C45.602 18.77 45.7495 18.9907 45.8501 19.2337C45.9507 19.4766 46.0025 19.737 46.0025 20C46.0025 20.263 45.9507 20.5234 45.8501 20.7663C45.7495 21.0093 45.602 21.2301 45.416 21.416L34.828 32L45.416 42.584C45.602 42.77 45.7495 42.9907 45.8501 43.2337C45.9507 43.4766 46.0025 43.737 46.0025 44C46.0025 44.263 45.9507 44.5234 45.8501 44.7663C45.7495 45.0093 45.602 45.2301 45.416 45.416C45.2301 45.602 45.0093 45.7495 44.7663 45.8501C44.5234 45.9507 44.263 46.0025 44 46.0025C43.737 46.0025 43.4766 45.9507 43.2337 45.8501C42.9907 45.7495 42.77 45.602 42.584 45.416L32 34.828L21.416 45.416C21.2301 45.602 21.0093 45.7495 20.7663 45.8501C20.5234 45.9507 20.263 46.0025 20 46.0025C19.737 46.0025 19.4766 45.9507 19.2337 45.8501C18.9907 45.7495 18.77 45.602 18.584 45.416C18.3981 45.2301 18.2505 45.0093 18.1499 44.7663C18.0493 44.5234 17.9975 44.263 17.9975 44C17.9975 43.737 18.0493 43.4766 18.1499 43.2337C18.2505 42.9907 18.3981 42.77 18.584 42.584L29.172 32L18.584 21.416C18.3978 21.2302 18.25 21.0095 18.1492 20.7665C18.0483 20.5236 17.9964 20.2631 17.9964 20C17.9964 19.7369 18.0483 19.4764 18.1492 19.2335C18.25 18.9905 18.3978 18.7698 18.584 18.584Z" fill="#FDB018"/>
</svg>
