<svg width="10" height="18" viewBox="0 0 10 18" fill="none" xmlns="http://www.w3.org/2000/svg">
<path d="M8.28305 0.501063L0.510046 8.47506C0.373525 8.61512 0.297119 8.80298 0.297119 8.99856C0.297119 9.19415 0.373525 9.382 0.510046 9.52206L8.28305 17.4991C8.34664 17.5644 8.42267 17.6163 8.50666 17.6517C8.59065 17.6872 8.68088 17.7054 8.77205 17.7054C8.86321 17.7054 8.95344 17.6872 9.03743 17.6517C9.12142 17.6163 9.19745 17.5644 9.26105 17.4991C9.39188 17.3651 9.46513 17.1853 9.46513 16.9981C9.46513 16.8108 9.39188 16.631 9.26105 16.4971L1.95155 8.99856L9.26105 1.50156C9.39143 1.36768 9.46439 1.18819 9.46439 1.00131C9.46439 0.814435 9.39143 0.634941 9.26105 0.501063C9.19745 0.435748 9.12142 0.383834 9.03743 0.348387C8.95344 0.31294 8.86321 0.294678 8.77205 0.294678C8.68088 0.294678 8.59065 0.31294 8.50666 0.348387C8.42267 0.383834 8.34664 0.435748 8.28305 0.501063Z" fill="#FDB018"/>
</svg>
