<svg width="259" height="105" viewBox="0 0 259 105" fill="none" xmlns="http://www.w3.org/2000/svg">
<g filter="url(#filter0_dd_201_2047)">
<g filter="url(#filter1_dd_201_2047)">
<rect x="22.5" y="22" width="198" height="45" rx="12" fill="#E8D8B7" fill-opacity="0.79" shape-rendering="crispEdges"/>
<path d="M50.652 52.104C49.4947 52.8507 47.8707 53.224 45.78 53.224C42.98 53.224 40.6653 52.3467 38.836 50.592C37.0253 48.8187 36.12 46.476 36.12 43.564C36.12 40.708 37.016 38.384 38.808 36.592C40.6187 34.7813 42.9427 33.876 45.78 33.876C47.852 33.876 49.4667 34.2213 50.624 34.912V38.356C49.2053 37.5347 47.6373 37.124 45.92 37.124C44.2027 37.124 42.7653 37.712 41.608 38.888C40.4693 40.0453 39.9 41.604 39.9 43.564C39.9 45.524 40.4693 47.0827 41.608 48.24C42.7653 49.3973 44.268 49.976 46.116 49.976C47.8893 49.976 49.4013 49.5093 50.652 48.576V52.104ZM58.9785 45.02L58.7265 45.832H64.0465L63.7945 44.992C63.1598 42.976 62.6372 41.2867 62.2265 39.924C61.8345 38.5427 61.5918 37.6747 61.4985 37.32L61.3865 36.76C61.2185 37.6933 60.4158 40.4467 58.9785 45.02ZM56.4585 53H52.7625L59.1465 34.128H63.7105L70.0945 53H66.2865L64.9425 48.716H57.8025L56.4585 53ZM78.9657 53H72.8057V34.128H78.9657C81.7844 34.128 84.0897 34.996 85.8817 36.732C87.6737 38.468 88.5697 40.6613 88.5697 43.312C88.5697 46.2053 87.7017 48.548 85.9657 50.34C84.2297 52.1133 81.8964 53 78.9657 53ZM78.8537 37.096H76.4177V50.06H78.9097C80.8884 50.06 82.391 49.4533 83.4177 48.24C84.4444 47.008 84.9577 45.3653 84.9577 43.312C84.9577 41.5013 84.407 40.0173 83.3057 38.86C82.223 37.684 80.739 37.096 78.8537 37.096ZM96.7402 45.02L96.4882 45.832H101.808L101.556 44.992C100.922 42.976 100.399 41.2867 99.9882 39.924C99.5962 38.5427 99.3536 37.6747 99.2602 37.32L99.1482 36.76C98.9802 37.6933 98.1776 40.4467 96.7402 45.02ZM94.2202 53H90.5242L96.9082 34.128H101.472L107.856 53H104.048L102.704 48.716H95.5642L94.2202 53ZM121.963 47.708C121.963 49.388 121.357 50.732 120.143 51.74C118.949 52.7293 117.371 53.224 115.411 53.224C113.283 53.224 111.519 52.8227 110.119 52.02V48.408C111.725 49.5653 113.479 50.144 115.383 50.144C116.242 50.144 116.933 49.9387 117.455 49.528C117.978 49.0987 118.239 48.5293 118.239 47.82C118.239 47.484 118.174 47.1853 118.043 46.924C117.913 46.6627 117.642 46.4013 117.231 46.14C116.839 45.8787 116.531 45.692 116.307 45.58C116.102 45.468 115.663 45.2627 114.991 44.964C114.805 44.8707 114.665 44.8053 114.571 44.768C113.881 44.4507 113.321 44.1707 112.891 43.928C112.462 43.6667 111.995 43.3213 111.491 42.892C110.987 42.4627 110.605 41.9493 110.343 41.352C110.101 40.7547 109.979 40.0733 109.979 39.308C109.979 37.7027 110.567 36.4147 111.743 35.444C112.938 34.4733 114.515 33.988 116.475 33.988C118.249 33.988 119.779 34.296 121.067 34.912V38.328C119.667 37.488 118.174 37.068 116.587 37.068C115.71 37.068 115.019 37.264 114.515 37.656C114.03 38.048 113.787 38.552 113.787 39.168C113.787 39.784 114.049 40.2973 114.571 40.708C115.113 41.1 115.915 41.5387 116.979 42.024C117.726 42.36 118.333 42.6587 118.799 42.92C119.266 43.1627 119.77 43.508 120.311 43.956C120.871 44.404 121.282 44.9453 121.543 45.58C121.823 46.196 121.963 46.9053 121.963 47.708ZM136.96 37.04H132.172V53H128.616V37.04H123.828V34.128H136.96V37.04ZM145.43 37.04H143.134V43.2H145.486C146.569 43.2 147.381 42.9293 147.922 42.388C148.464 41.828 148.734 41.0533 148.734 40.064C148.734 39.0933 148.445 38.3467 147.866 37.824C147.306 37.3013 146.494 37.04 145.43 37.04ZM143.134 53H139.606V34.128H145.43C147.577 34.128 149.257 34.6693 150.47 35.752C151.702 36.8347 152.318 38.2813 152.318 40.092C152.3 41.436 151.973 42.5747 151.338 43.508C150.704 44.4227 149.836 45.104 148.734 45.552L153.578 53H149.35L145.066 46.112H143.134V53ZM167.351 53H156.095V34.128H167.239V37.012H159.651V42.136H166.399V44.992H159.651V50.116H167.351V53ZM177.44 47.008H170.328V44.18H177.44V47.008ZM192.155 47.708C192.155 49.388 191.548 50.732 190.335 51.74C189.14 52.7293 187.563 53.224 185.603 53.224C183.475 53.224 181.711 52.8227 180.311 52.02V48.408C181.916 49.5653 183.671 50.144 185.575 50.144C186.433 50.144 187.124 49.9387 187.647 49.528C188.169 49.0987 188.431 48.5293 188.431 47.82C188.431 47.484 188.365 47.1853 188.235 46.924C188.104 46.6627 187.833 46.4013 187.423 46.14C187.031 45.8787 186.723 45.692 186.499 45.58C186.293 45.468 185.855 45.2627 185.183 44.964C184.996 44.8707 184.856 44.8053 184.763 44.768C184.072 44.4507 183.512 44.1707 183.083 43.928C182.653 43.6667 182.187 43.3213 181.683 42.892C181.179 42.4627 180.796 41.9493 180.535 41.352C180.292 40.7547 180.171 40.0733 180.171 39.308C180.171 37.7027 180.759 36.4147 181.935 35.444C183.129 34.4733 184.707 33.988 186.667 33.988C188.44 33.988 189.971 34.296 191.259 34.912V38.328C189.859 37.488 188.365 37.068 186.779 37.068C185.901 37.068 185.211 37.264 184.707 37.656C184.221 38.048 183.979 38.552 183.979 39.168C183.979 39.784 184.24 40.2973 184.763 40.708C185.304 41.1 186.107 41.5387 187.171 42.024C187.917 42.36 188.524 42.6587 188.991 42.92C189.457 43.1627 189.961 43.508 190.503 43.956C191.063 44.404 191.473 44.9453 191.735 45.58C192.015 46.196 192.155 46.9053 192.155 47.708ZM206.507 53H195.251V34.128H206.395V37.012H198.807V42.136H205.555V44.992H198.807V50.116H206.507V53Z" fill="#4E3123"/>
<rect x="23" y="22.5" width="197" height="44" rx="11.5" stroke="#FDB018" shape-rendering="crispEdges"/>
<rect x="23" y="22.5" width="197" height="44" rx="11.5" stroke="black" stroke-opacity="0.2" shape-rendering="crispEdges"/>
</g>
</g>
<defs>
<filter id="filter0_dd_201_2047" x="-9" y="-16" width="277" height="137" filterUnits="userSpaceOnUse" color-interpolation-filters="sRGB">
<feFlood flood-opacity="0" result="BackgroundImageFix"/>
<feColorMatrix in="SourceAlpha" type="matrix" values="0 0 0 0 0 0 0 0 0 0 0 0 0 0 0 0 0 0 127 0" result="hardAlpha"/>
<feOffset dx="8" dy="8"/>
<feGaussianBlur stdDeviation="15"/>
<feComposite in2="hardAlpha" operator="out"/>
<feColorMatrix type="matrix" values="0 0 0 0 0.909804 0 0 0 0 0.847059 0 0 0 0 0.717647 0 0 0 0.79 0"/>
<feBlend mode="normal" in2="BackgroundImageFix" result="effect1_dropShadow_201_2047"/>
<feColorMatrix in="SourceAlpha" type="matrix" values="0 0 0 0 0 0 0 0 0 0 0 0 0 0 0 0 0 0 127 0" result="hardAlpha"/>
<feOffset dx="8" dy="8"/>
<feGaussianBlur stdDeviation="15"/>
<feComposite in2="hardAlpha" operator="out"/>
<feColorMatrix type="matrix" values="0 0 0 0 1 0 0 0 0 1 0 0 0 0 1 0 0 0 1 0"/>
<feBlend mode="normal" in2="effect1_dropShadow_201_2047" result="effect2_dropShadow_201_2047"/>
<feBlend mode="normal" in="SourceGraphic" in2="effect2_dropShadow_201_2047" result="shape"/>
</filter>
<filter id="filter1_dd_201_2047" x="0.5" y="0" width="258" height="105" filterUnits="userSpaceOnUse" color-interpolation-filters="sRGB">
<feFlood flood-opacity="0" result="BackgroundImageFix"/>
<feColorMatrix in="SourceAlpha" type="matrix" values="0 0 0 0 0 0 0 0 0 0 0 0 0 0 0 0 0 0 127 0" result="hardAlpha"/>
<feOffset dx="8" dy="8"/>
<feGaussianBlur stdDeviation="15"/>
<feComposite in2="hardAlpha" operator="out"/>
<feColorMatrix type="matrix" values="0 0 0 0 0.909804 0 0 0 0 0.847059 0 0 0 0 0.717647 0 0 0 0.79 0"/>
<feBlend mode="normal" in2="BackgroundImageFix" result="effect1_dropShadow_201_2047"/>
<feColorMatrix in="SourceAlpha" type="matrix" values="0 0 0 0 0 0 0 0 0 0 0 0 0 0 0 0 0 0 127 0" result="hardAlpha"/>
<feOffset dx="8" dy="8"/>
<feGaussianBlur stdDeviation="15"/>
<feComposite in2="hardAlpha" operator="out"/>
<feColorMatrix type="matrix" values="0 0 0 0 1 0 0 0 0 1 0 0 0 0 1 0 0 0 1 0"/>
<feBlend mode="normal" in2="effect1_dropShadow_201_2047" result="effect2_dropShadow_201_2047"/>
<feBlend mode="normal" in="SourceGraphic" in2="effect2_dropShadow_201_2047" result="shape"/>
</filter>
</defs>
</svg>
