<svg width="191" height="42" viewBox="0 0 191 42" fill="none" xmlns="http://www.w3.org/2000/svg">
<path d="M7.32 31.24C6.008 31.24 4.816 31.016 3.744 30.568C2.688 30.104 1.8 29.496 1.08 28.744L2.352 27.424C3.728 28.816 5.392 29.512 7.344 29.512C8.432 29.512 9.264 29.296 9.84 28.864C10.416 28.416 10.704 27.808 10.704 27.04C10.704 26.464 10.592 25.992 10.368 25.624C10.144 25.256 9.744 24.92 9.168 24.616C8.592 24.296 7.712 23.92 6.528 23.488C4.768 22.864 3.488 22.16 2.688 21.376C1.904 20.592 1.512 19.592 1.512 18.376C1.512 17 1.992 15.92 2.952 15.136C3.912 14.352 5.24 13.96 6.936 13.96C7.976 13.96 8.944 14.12 9.84 14.44C10.752 14.744 11.544 15.168 12.216 15.712L11.112 17.176C10.504 16.696 9.872 16.336 9.216 16.096C8.576 15.84 7.816 15.712 6.936 15.712C4.728 15.712 3.624 16.592 3.624 18.352C3.624 18.944 3.768 19.432 4.056 19.816C4.344 20.2 4.768 20.544 5.328 20.848C5.904 21.152 6.728 21.496 7.8 21.88C9.032 22.328 10 22.784 10.704 23.248C11.424 23.696 11.952 24.224 12.288 24.832C12.64 25.424 12.816 26.16 12.816 27.04C12.816 28.32 12.328 29.344 11.352 30.112C10.392 30.864 9.048 31.24 7.32 31.24ZM20.0664 31.24C19.0104 31.24 18.0984 30.984 17.3304 30.472C16.5624 29.944 15.9784 29.232 15.5784 28.336C15.1784 27.44 14.9784 26.424 14.9784 25.288C14.9784 24.12 15.1784 23.072 15.5784 22.144C15.9944 21.2 16.5944 20.464 17.3784 19.936C18.1624 19.392 19.1064 19.12 20.2104 19.12C21.7944 19.12 23.0184 19.76 23.8824 21.04V19.36H25.8504V28C25.8504 29.12 26.0344 29.976 26.4024 30.568L24.7464 31.24C24.3624 30.776 24.1384 30.104 24.0744 29.224L24.0024 29.2C23.0264 30.56 21.7144 31.24 20.0664 31.24ZM20.3304 29.56C21.4664 29.56 22.3384 29.2 22.9464 28.48C23.5704 27.744 23.8824 26.816 23.8824 25.696V24.688C23.8824 24.048 23.7464 23.432 23.4744 22.84C23.2184 22.248 22.8264 21.76 22.2984 21.376C21.7704 20.992 21.1304 20.8 20.3784 20.8C19.2904 20.8 18.4584 21.216 17.8824 22.048C17.3064 22.864 17.0184 23.944 17.0184 25.288C17.0184 26.584 17.2984 27.624 17.8584 28.408C18.4344 29.176 19.2584 29.56 20.3304 29.56ZM30.4202 16.84C30.0042 16.84 29.6522 16.704 29.3642 16.432C29.0762 16.144 28.9322 15.8 28.9322 15.4C28.9322 15 29.0762 14.664 29.3642 14.392C29.6522 14.104 30.0042 13.96 30.4202 13.96C30.8362 13.96 31.1882 14.104 31.4762 14.392C31.7642 14.664 31.9082 15 31.9082 15.4C31.9082 15.8 31.7642 16.144 31.4762 16.432C31.1882 16.704 30.8362 16.84 30.4202 16.84ZM29.3882 19.36H31.4042V31H29.3882V19.36ZM34.4316 30.568C34.6236 30.232 34.7676 29.88 34.8636 29.512C34.9596 29.128 35.0076 28.616 35.0076 27.976V13.384H37.0236V21.016C37.4556 20.456 37.9996 20 38.6556 19.648C39.3116 19.296 40.0396 19.12 40.8396 19.12C42.5196 19.12 43.7916 19.672 44.6556 20.776C45.5196 21.864 45.9516 23.336 45.9516 25.192C45.9516 26.328 45.7436 27.352 45.3276 28.264C44.9116 29.176 44.3116 29.904 43.5276 30.448C42.7436 30.976 41.8236 31.24 40.7676 31.24C39.9196 31.24 39.1596 31.056 38.4876 30.688C37.8316 30.32 37.2876 29.816 36.8556 29.176C36.8396 29.624 36.7596 30.032 36.6156 30.4C36.4876 30.768 36.3276 31.048 36.1356 31.24L34.4316 30.568ZM40.5756 29.56C41.6796 29.56 42.5116 29.144 43.0716 28.312C43.6316 27.464 43.9116 26.424 43.9116 25.192C43.9116 23.864 43.6396 22.8 43.0956 22C42.5676 21.2 41.7116 20.8 40.5276 20.8C39.8076 20.8 39.1756 20.984 38.6316 21.352C38.1036 21.72 37.6956 22.208 37.4076 22.816C37.1356 23.408 36.9996 24.032 36.9996 24.688V25.696C36.9996 26.384 37.1436 27.024 37.4316 27.616C37.7196 28.208 38.1276 28.68 38.6556 29.032C39.1996 29.384 39.8396 29.56 40.5756 29.56ZM52.5977 31.24C51.5417 31.24 50.6297 30.984 49.8617 30.472C49.0937 29.944 48.5097 29.232 48.1097 28.336C47.7097 27.44 47.5097 26.424 47.5097 25.288C47.5097 24.12 47.7097 23.072 48.1097 22.144C48.5257 21.2 49.1257 20.464 49.9097 19.936C50.6937 19.392 51.6377 19.12 52.7417 19.12C54.3257 19.12 55.5497 19.76 56.4137 21.04V19.36H58.3817V28C58.3817 29.12 58.5657 29.976 58.9337 30.568L57.2777 31.24C56.8937 30.776 56.6697 30.104 56.6057 29.224L56.5337 29.2C55.5577 30.56 54.2457 31.24 52.5977 31.24ZM52.8617 29.56C53.9977 29.56 54.8697 29.2 55.4777 28.48C56.1017 27.744 56.4137 26.816 56.4137 25.696V24.688C56.4137 24.048 56.2777 23.432 56.0057 22.84C55.7497 22.248 55.3577 21.76 54.8297 21.376C54.3017 20.992 53.6617 20.8 52.9097 20.8C51.8217 20.8 50.9897 21.216 50.4137 22.048C49.8377 22.864 49.5497 23.944 49.5497 25.288C49.5497 26.584 49.8297 27.624 50.3897 28.408C50.9657 29.176 51.7897 29.56 52.8617 29.56ZM82.3629 31.24C81.8509 30.36 81.5949 29.408 81.5949 28.384V23.776C81.5949 22.752 81.4349 22.008 81.1149 21.544C80.7949 21.064 80.2269 20.824 79.4109 20.824C78.5629 20.824 77.9069 21.12 77.4429 21.712C76.9949 22.288 76.7709 23.032 76.7709 23.944V31H74.8029V23.776C74.8029 22.832 74.6189 22.104 74.2509 21.592C73.8989 21.08 73.3469 20.824 72.5949 20.824C71.7149 20.824 71.0349 21.168 70.5549 21.856C70.0749 22.544 69.8349 23.424 69.8349 24.496V31H67.8189V22.288C67.8189 21.712 67.7789 21.24 67.6989 20.872C67.6189 20.504 67.4829 20.152 67.2909 19.816L69.0909 19.12C69.2509 19.408 69.3789 19.704 69.4749 20.008C69.5869 20.312 69.6589 20.68 69.6909 21.112C70.0109 20.488 70.4589 20 71.0349 19.648C71.6269 19.296 72.2589 19.12 72.9309 19.12C74.4029 19.12 75.4269 19.848 76.0029 21.304C76.3709 20.6 76.8749 20.064 77.5149 19.696C78.1549 19.312 78.8829 19.12 79.6989 19.12C81.0269 19.12 82.0109 19.504 82.6509 20.272C83.2909 21.04 83.6109 22.08 83.6109 23.392V28.384C83.6109 29.184 83.7949 29.896 84.1629 30.52L82.3629 31.24ZM91.4102 31.24C90.3542 31.24 89.4422 30.984 88.6742 30.472C87.9062 29.944 87.3222 29.232 86.9222 28.336C86.5222 27.44 86.3222 26.424 86.3222 25.288C86.3222 24.12 86.5222 23.072 86.9222 22.144C87.3382 21.2 87.9382 20.464 88.7222 19.936C89.5062 19.392 90.4502 19.12 91.5542 19.12C93.1382 19.12 94.3622 19.76 95.2262 21.04V19.36H97.1942V28C97.1942 29.12 97.3782 29.976 97.7462 30.568L96.0902 31.24C95.7062 30.776 95.4822 30.104 95.4182 29.224L95.3462 29.2C94.3702 30.56 93.0582 31.24 91.4102 31.24ZM91.6742 29.56C92.8102 29.56 93.6822 29.2 94.2902 28.48C94.9142 27.744 95.2262 26.816 95.2262 25.696V24.688C95.2262 24.048 95.0902 23.432 94.8182 22.84C94.5622 22.248 94.1702 21.76 93.6422 21.376C93.1142 20.992 92.4742 20.8 91.7222 20.8C90.6342 20.8 89.8022 21.216 89.2262 22.048C88.6502 22.864 88.3622 23.944 88.3622 25.288C88.3622 26.584 88.6422 27.624 89.2022 28.408C89.7782 29.176 90.6022 29.56 91.6742 29.56ZM101.764 16.84C101.348 16.84 100.996 16.704 100.708 16.432C100.42 16.144 100.276 15.8 100.276 15.4C100.276 15 100.42 14.664 100.708 14.392C100.996 14.104 101.348 13.96 101.764 13.96C102.18 13.96 102.532 14.104 102.82 14.392C103.108 14.664 103.252 15 103.252 15.4C103.252 15.8 103.108 16.144 102.82 16.432C102.532 16.704 102.18 16.84 101.764 16.84ZM100.732 19.36H102.748V31H100.732V19.36ZM110.911 31.24C109.823 31.24 108.847 31.072 107.983 30.736C107.119 30.4 106.383 29.928 105.775 29.32L106.999 28C107.463 28.496 108.039 28.888 108.727 29.176C109.431 29.448 110.159 29.584 110.911 29.584C111.663 29.584 112.239 29.464 112.639 29.224C113.039 28.984 113.239 28.624 113.239 28.144C113.239 27.808 113.167 27.536 113.023 27.328C112.879 27.12 112.607 26.912 112.207 26.704C111.807 26.496 111.175 26.248 110.311 25.96C108.823 25.448 107.767 24.928 107.143 24.4C106.519 23.872 106.207 23.152 106.207 22.24C106.207 21.28 106.583 20.52 107.335 19.96C108.087 19.4 109.151 19.12 110.527 19.12C111.327 19.12 112.063 19.24 112.735 19.48C113.423 19.704 114.023 20 114.535 20.368L113.767 21.808C113.223 21.44 112.695 21.176 112.183 21.016C111.671 20.856 111.111 20.776 110.503 20.776C109.751 20.776 109.183 20.912 108.799 21.184C108.415 21.44 108.223 21.792 108.223 22.24C108.223 22.592 108.327 22.88 108.535 23.104C108.743 23.328 109.023 23.52 109.375 23.68C109.727 23.84 110.327 24.072 111.175 24.376C112.231 24.76 113.039 25.112 113.599 25.432C114.175 25.752 114.591 26.128 114.847 26.56C115.119 26.976 115.255 27.512 115.255 28.168C115.255 29.128 114.871 29.88 114.103 30.424C113.351 30.968 112.287 31.24 110.911 31.24Z" fill="#4E3123"/>
<mask id="mask0_201_2055" style="mask-type:alpha" maskUnits="userSpaceOnUse" x="119" y="1" width="39" height="40">
<rect x="119.187" y="1.59375" width="38.8126" height="38.8126" fill="#D9D9D9"/>
</mask>
<g mask="url(#mask0_201_2055)">
<path d="M147.488 28.2774L145.184 26.0133L148.58 22.6172H124.039V19.3828H148.58L145.224 15.9867L147.529 13.7227L154.766 21L147.488 28.2774Z" fill="#E8D8B7"/>
</g>
</svg>
